PathFileType	4	(X/Y/Z)	C:\Users\Basilio\Documents\Thesis Gigler\squatting_fais\c3dfiles\047\SLS_pre_back1\markers_experimental.trc
DataRate	CameraRate	NumFrames	NumMarkers	Units	OrigDataRate	OrigDataStartFrame	OrigNumFrames
200.000000	200.000000	4	60	mm	200.000000	945	1260
Frame#	Time	FHD			LBHD			RBHD			C7			T10			CLAV			LSHO			LUUPA			LMUPA			LDUPA			LLEP			LMEP			LRAD			LUL			LRFIN			RSHO			RUPA1			RMUPA			RDUPA			RLEP			RMEP			RUL			RUFIN			LASI			RASI			USACR			LSACR			RSACR			LTHI1			LTHI2			LTHI3			LTHI4			LLFC			LMFC			LTIB1			LTIB2			LTIB3			LTIB4			LLMAL			LMMAL			LMT1			LMT2			LMT5			RTHI			RTHI2			RTHI3			RTHI4			RLFC			RMFC			RTIB1			RTIB2			RTIB3			RTIB4			RLMAL			RHEE			RMT1			RMT2			RMT5			RMMAL			*59			
		X1	Y1	Z1	X2	Y2	Z2	X3	Y3	Z3	X4	Y4	Z4	X5	Y5	Z5	X6	Y6	Z6	X7	Y7	Z7	X8	Y8	Z8	X9	Y9	Z9	X10	Y10	Z10	X11	Y11	Z11	X12	Y12	Z12	X13	Y13	Z13	X14	Y14	Z14	X15	Y15	Z15	X16	Y16	Z16	X17	Y17	Z17	X18	Y18	Z18	X19	Y19	Z19	X20	Y20	Z20	X21	Y21	Z21	X22	Y22	Z22	X23	Y23	Z23	X24	Y24	Z24	X25	Y25	Z25	X26	Y26	Z26	X27	Y27	Z27	X28	Y28	Z28	X29	Y29	Z29	X30	Y30	Z30	X31	Y31	Z31	X32	Y32	Z32	X33	Y33	Z33	X34	Y34	Z34	X35	Y35	Z35	X36	Y36	Z36	X37	Y37	Z37	X38	Y38	Z38	X39	Y39	Z39	X40	Y40	Z40	X41	Y41	Z41	X42	Y42	Z42	X43	Y43	Z43	X44	Y44	Z44	X45	Y45	Z45	X46	Y46	Z46	X47	Y47	Z47	X48	Y48	Z48	X49	Y49	Z49	X50	Y50	Z50	X51	Y51	Z51	X52	Y52	Z52	X53	Y53	Z53	X54	Y54	Z54	X55	Y55	Z55	X56	Y56	Z56	X57	Y57	Z57	X58	Y58	Z58	X59	Y59	Z59	X60	Y60	Z60	

946	4.725000000000001	-59.29724884033205	1634.927490234375	-1139.609130859375	-231.8844604492188	1579.10107421875	-1162.098876953125	-210.7639312744141	1598.514282226563	-1015.781799316406	-248.8577270507813	1433.45068359375	-1074.079833984375	-355.0637207031251	1156.831909179688	-1013.801513671875	-116.3772583007813	1344.185302734375	-1097.440795898438	-187.4282989501953	1360.619995117188	-1251.55322265625	-153.480453491211	1193.615356445313	-1336.132446289063	-105.1737976074219	1211.347778320313	-1338.121337890625	-97.68326568603518	1151.769165039063	-1345.490234375	-29.45391654968262	1126.572265625	-1350.04345703125	-47.38578414916993	1083.296752929688	-1269.46337890625	151.9331512451172	1223.80810546875	-1199.763793945313	187.2425689697266	1155.50390625	-1194.436767578125	240.6966552734376	1232.412231445313	-1196.593505859375	-126.6850814819336	1394.936279296875	-942.2307128906252	-46.70380783081055	1250.327758789063	-838.089782714844	-7.287018299102785	1262.867797851563	-863.065368652344	8.772373199462892	1207.99462890625	-844.542419433594	76.87355804443361	1180.982421875	-866.0674438476565	34.46249389648438	1117.204956054688	-912.051696777344	237.3813171386719	1180.509887695313	-1075.26123046875	212.7878570556641	1257.934692382813	-1116.893676757813	-269.6823425292969	890.6762695312502	-1090.744262695313	-258.2585754394532	907.6540527343752	-866.6182861328127	-413.0291748046876	1033.614379882813	-987.1550903320315	-430.194061279297	1004.623474121094	-1012.800354003906	-426.4117736816407	1007.874389648438	-953.8428955078127	-322.5056457519532	764.0768432617189	-1168.87744140625	-260.1005249023438	707.1550903320314	-1167.147705078125	-217.0830535888672	730.6055297851564	-1154.688232421875	-262.6094970703126	647.5371704101564	-1166.815063476563	-212.3986511230469	490.3443908691407	-1131.238525390625	-177.3563842773438	492.8016357421876	-1010.533325195313	-219.5983276367188	319.3755493164063	-1021.999206542969	-235.1877899169922	272.0761108398438	-1092.330200195313	-226.223861694336	266.8881835937501	-1046.255493164063	-267.2918395996094	202.8233642578126	-1011.36376953125	-344.5376281738282	124.2564773559571	-1056.108764648438	-324.8883056640626	138.4231719970703	-966.7401123046877	-210.1596832275391	62.17277908325197	-986.9125976562502	-209.5162811279297	64.05153656005861	-1032.949096679688	-258.0793457031251	54.35804748535158	-1076.564453125	-355.0633239746094	754.4790649414064	-761.8673706054689	-314.9090576171876	701.2345581054689	-753.8087768554689	-284.4162902832032	700.8660888671876	-765.3408813476564	-340.3235778808594	620.9306640625001	-746.5931396484376	-337.4979248046876	487.3028564453126	-755.7339477539064	-331.2247924804688	453.0620727539064	-881.851501464844	-437.2279663085939	413.5874328613282	-762.1671142578126	-526.9450683593751	471.6217346191407	-734.6184692382814	-520.1807250976564	425.4270935058595	-739.2540893554689	-567.0340576171876	403.0389709472657	-769.7249145507815	-725.2659301757814	452.0375061035157	-749.6239013671876	-744.5314941406251	499.2586669921876	-814.5617675781252	-791.0098266601565	295.6154479980469	-802.5420532226565	-798.809997558594	295.0153808593751	-766.4075317382814	-820.273864746094	356.4400329589844	-715.2993164062501	-705.3583374023439	408.2933959960939	-828.664245605469	nan	nan	nan	
947	4.73	-60.53487777709962	1637.91357421875	-1139.173217773438	-233.2407531738282	1581.640014648438	-1161.338256835938	-212.0394439697266	1601.032836914063	-1015.010009765625	-250.0530395507813	1435.585815429688	-1073.526245117188	-355.1788330078126	1158.476440429688	-1013.9921875	-117.5920486450196	1346.80712890625	-1096.835693359375	-188.5234680175782	1363.326904296875	-1251.302978515625	-154.08984375	1196.445678710938	-1336.0771484375	-106.5890121459961	1214.017700195313	-1337.36962890625	-98.3112716674805	1154.713745117188	-1345.391845703125	-30.10791397094727	1129.488647460938	-1349.9189453125	-47.44021606445313	1086.154418945313	-1269.413696289063	151.7221069335938	1227.163208007813	-1200.40869140625	186.5334930419922	1158.5986328125	-1194.082763671875	239.8771057128907	1235.805419921875	-1196.318237304688	-128.0120086669922	1397.017333984375	-941.1863403320315	-47.69086074829102	1252.716064453125	-837.9135742187502	-8.067790985107424	1265.481689453125	-863.0747070312502	7.886442661285402	1210.303955078125	-844.2395629882815	76.3131561279297	1183.821899414063	-866.0245361328127	34.04226303100587	1119.60888671875	-912.2508544921877	236.3616333007813	1183.48486328125	-1074.883178710938	211.9484100341797	1261.19970703125	-1116.711669921875	-268.8170471191407	892.5552368164065	-1090.994506835938	-257.5708312988282	909.805847167969	-866.7690429687502	-412.591766357422	1034.92138671875	-987.599304199219	-429.8760070800782	1006.263671875	-1013.084106445313	-426.1191711425782	1009.664001464844	-954.1895141601565	-322.1050415039063	765.2960205078126	-1168.838989257813	-259.5534973144532	708.3522338867189	-1167.158813476563	-216.7070770263672	731.3167114257814	-1154.490234375	-262.6191406250001	648.5085449218751	-1166.592163085938	-213.2301940917969	491.1399536132814	-1130.656616210938	-178.7002716064453	493.2308044433595	-1010.019165039063	-220.5722656250001	319.5898742675782	-1021.357055664063	-239.7559814453126	270.7041320800782	-1090.43701171875	-226.5649414062501	267.4244995117188	-1046.010620117188	-267.4823303222657	203.2090911865235	-1011.217041015625	-344.4837646484376	124.2521362304688	-1056.04541015625	-324.9757995605469	138.2728424072266	-966.4897460937502	-210.7339782714844	61.81357574462892	-986.6233520507815	-210.6685638427735	62.97449111938478	-1032.206176757813	-257.9933166503907	54.4454803466797	-1076.493774414063	-354.1078796386719	756.1748046875001	-762.0710449218751	-314.0509338378907	703.1078491210939	-754.0144042968751	-283.5987243652344	702.7080688476564	-765.3906250000001	-339.4726867675782	622.3969116210939	-746.5709838867189	-336.4718017578126	489.2182617187501	-755.2555541992189	-329.9409484863282	454.9380493164064	-881.942810058594	-435.9158935546876	414.9970703125001	-762.4238281250001	-525.8473510742189	473.1494750976564	-734.8164062500001	-518.8970947265626	426.7650146484376	-739.7208862304689	-565.7440185546876	404.3474121093751	-769.6428833007815	-724.0590820312501	453.0064086914064	-750.0414428710939	-743.3695678710939	499.855194091797	-814.9963378906252	-789.4096679687502	296.1842651367188	-802.7371215820315	-797.7678833007815	295.6486206054688	-767.1526489257814	-818.732604980469	357.2354431152344	-715.5938110351564	-704.0688476562501	409.1085510253907	-828.8398437500002	nan	nan	nan	
948	4.735	-62.24668121337892	1640.641357421875	-1138.530395507813	-234.9403991699219	1584.29150390625	-1160.4697265625	-213.5316009521485	1603.281005859375	-1014.064331054688	-251.2473754882813	1437.964599609375	-1073.059448242188	-355.9923706054688	1159.930786132813	-1014.264953613281	-117.5578536987305	1349.348266601563	-1096.746337890625	-189.4967651367188	1366.140014648438	-1251.012451171875	-155.0447540283203	1199.287475585938	-1335.8994140625	-106.5632858276367	1217.078369140625	-1337.739135742188	-99.06049346923831	1157.68017578125	-1345.248657226563	-30.49139595031739	1132.337036132813	-1349.755493164063	-47.60188293457032	1088.937622070313	-1268.952270507813	150.7456207275391	1230.145263671875	-1199.529663085938	186.1610260009766	1161.911254882813	-1194.164428710938	239.0922088623047	1238.951782226563	-1195.986694335938	-128.8542022705078	1399.471923828125	-940.7456665039065	-48.4800148010254	1254.963989257813	-837.5564575195315	-9.057493209838869	1267.838500976563	-862.660339355469	7.03628730773926	1212.730102539063	-843.9499511718752	75.40876770019533	1186.2841796875	-865.7915649414065	33.43300247192384	1122.164428710938	-912.1390380859377	235.7298278808594	1186.584106445313	-1074.73486328125	210.967514038086	1264.231323242188	-1116.224853515625	-267.7325744628907	894.467224121094	-1091.311279296875	-256.8735961914063	911.6146240234377	-866.8591918945315	-412.0500488281251	1036.65966796875	-988.038757324219	-429.0725402832032	1007.509887695313	-1013.570617675781	-425.6519470214845	1010.855529785156	-954.473571777344	-321.4767456054688	766.3677978515626	-1168.834228515625	-259.0912780761719	709.3741455078126	-1166.886474609375	-216.0309600830079	732.1120605468751	-1154.644897460938	-262.4855957031251	649.1378784179689	-1166.5185546875	-214.0889587402344	491.6379699707032	-1130.233154296875	-179.8455810546875	493.6365966796876	-1009.3095703125	-221.061264038086	319.9953918457032	-1020.988159179688	-240.1828765869141	271.0044555664063	-1089.97509765625	-227.2056121826172	268.2717590332032	-1046.028686523438	-267.5167541503907	203.5441589355469	-1011.15673828125	-344.5334472656251	124.2147750854492	-1055.980834960938	-324.9622192382813	138.2576446533203	-966.5015258789065	-210.6877899169922	61.78564453125001	-986.7462158203127	-210.5296325683594	63.26957321166994	-1032.373291015625	-258.0128479003907	54.57783508300783	-1076.344848632813	-353.2167663574219	757.9601440429689	-762.4133300781251	-313.1739196777344	704.9683837890626	-754.1627807617189	-282.6366577148438	704.6154174804689	-765.5104370117189	-338.3567810058594	624.3424072265626	-746.7593383789064	-335.0249328613282	490.848358154297	-755.8137207031251	-328.7029724121094	457.0737915039064	-882.0225830078127	-434.5349731445314	416.5183410644532	-762.8629150390626	-524.5305786132814	474.2680664062501	-734.9190673828126	-517.4125976562501	428.1060485839845	-740.0452270507814	-564.2906494140626	405.6763916015626	-769.9993286132815	-722.6837768554689	453.7886047363282	-750.3794555664064	-741.8331298828126	500.7486877441407	-815.4334716796877	-788.2585449218752	296.5077819824219	-801.0980224609377	-796.0422363281252	296.3783874511719	-767.3530883789064	-817.353942871094	357.9005432128907	-716.0246582031251	-702.5910644531251	410.3205566406251	-829.280944824219	nan	nan	nan	
949	4.74	-63.74504852294923	1643.74853515625	-1137.68310546875	-236.5299224853516	1586.886474609375	-1159.659423828125	-214.8345184326172	1605.745361328125	-1013.392517089844	-252.409164428711	1440.23876953125	-1072.549560546875	-355.2736511230469	1161.71435546875	-1014.410461425781	-118.793571472168	1352.2373046875	-1096.58837890625	-190.5276489257813	1368.958984375	-1250.634765625	-155.4260864257813	1202.08544921875	-1335.759643554688	-107.3246994018555	1219.707885742188	-1337.073608398438	-99.51242828369143	1160.544189453125	-1345.083251953125	-31.01539039611817	1135.337036132813	-1349.587524414063	-50.04397201538087	1092.657958984375	-1270.12890625	150.2072143554688	1233.32470703125	-1199.616577148438	185.7587890625	1164.881591796875	-1193.9443359375	238.2395172119141	1242.097045898438	-1195.548828125	-130.4349060058594	1401.695190429688	-940.0377197265627	-49.4487648010254	1257.293701171875	-837.1897583007815	-9.87411403656006	1270.146240234375	-862.2553710937502	6.340864658355715	1215.196655273438	-843.7336425781252	74.39097595214845	1188.762451171875	-865.1303710937502	32.57829666137696	1124.655639648438	-911.8682861328127	235.173568725586	1189.902709960938	-1074.635131835938	210.0540618896485	1267.00634765625	-1114.960083007813	-266.8647460937501	896.271667480469	-1091.596313476563	-256.2520446777344	913.4370727539065	-867.280212402344	-411.416717529297	1037.950439453125	-988.4116210937502	-428.8634033203126	1009.161743164063	-1014.017883300781	-425.1234436035157	1012.396301269531	-954.8803710937502	-320.9309997558594	767.4437255859376	-1168.877197265625	-258.4661254882813	710.3352050781251	-1166.897705078125	-215.7931518554688	733.0210571289064	-1154.529296875	-262.3394165039063	649.9729614257814	-1166.33837890625	-215.0146789550782	492.219940185547	-1129.792358398438	-180.9415283203125	494.333953857422	-1008.910949707031	-221.7524719238282	320.5779113769532	-1020.653625488281	-240.8659362792969	271.2349243164063	-1089.602905273438	-227.7405853271485	268.4970397949219	-1045.864868164063	-268.1841735839844	203.6995086669922	-1010.685424804688	-344.5389099121094	124.2797470092774	-1055.904052734375	-325.0081176757813	138.203598022461	-966.4094848632815	-210.7564392089844	61.7227249145508	-986.6210937500002	-210.5457458496094	63.38105392456056	-1032.247680664063	-257.9906921386719	54.67404174804689	-1076.248779296875	-352.0434875488282	759.5884399414064	-762.9237060546876	-311.9753112792969	706.5457153320314	-754.5489501953126	-281.6684875488282	706.1829833984376	-765.5445556640626	-337.1190490722657	626.4450073242189	-747.3145751953126	-334.0776367187501	492.7991638183595	-755.1154174804689	-327.4143676757813	458.8571166992189	-882.108337402344	-432.9220275878907	418.1085815429689	-762.7387084960939	-523.4020996093751	475.7907104492189	-735.3132324218751	-516.1600341796876	429.4176330566407	-740.0934448242189	-562.8847045898439	406.8687438964845	-770.489440917969	-721.2185668945314	454.7618408203126	-750.7866821289064	-740.8472900390626	501.6757202148439	-815.6765747070315	-786.2003173828127	297.4801940917969	-803.2598266601565	-793.578796386719	297.4837341308594	-767.1484985351564	-815.8022460937502	358.8487243652344	-716.2800903320314	-701.0942993164064	411.3658142089845	-829.7878417968752	nan	nan	nan	
